<mxfile host="app.diagrams.net" modified="2023-06-04T07:43:27.041Z" agent="Mozilla/5.0 (Windows NT 10.0; Win64; x64) AppleWebKit/537.36 (KHTML, like Gecko) Chrome/113.0.0.0 Safari/537.36 OPR/99.0.0.0" etag="UBsqEL0EakOLOs6RBVI-" version="21.3.7" type="github">
  <diagram name="Page-1" id="zY5KByXfgUxSWwD3LtzW">
    <mxGraphModel dx="1223" dy="928" grid="1" gridSize="10" guides="1" tooltips="1" connect="1" arrows="1" fold="1" page="1" pageScale="1" pageWidth="850" pageHeight="1100" math="0" shadow="0">
      <root>
        <mxCell id="0" />
        <mxCell id="1" parent="0" />
        <mxCell id="DrQeyzu7oYbo8D8z5N6E-1" value="&lt;b&gt;ibd&amp;nbsp;&lt;/b&gt;CoffeeDisplay" style="shape=umlFrame;whiteSpace=wrap;html=1;pointerEvents=0;width=120;height=30;" parent="1" vertex="1">
          <mxGeometry x="40" y="180" width="740" height="800" as="geometry" />
        </mxCell>
        <mxCell id="DrQeyzu7oYbo8D8z5N6E-3" value="&lt;b&gt;&lt;font style=&quot;font-size: 16px;&quot;&gt;:Touchscreen&lt;br&gt;&lt;/font&gt;&lt;/b&gt;" style="html=1;whiteSpace=wrap;" parent="1" vertex="1">
          <mxGeometry x="510" y="840" width="236" height="100" as="geometry" />
        </mxCell>
        <mxCell id="DrQeyzu7oYbo8D8z5N6E-4" value="&lt;b&gt;&lt;font style=&quot;font-size: 16px;&quot;&gt;:TFT display&lt;br&gt;&lt;/font&gt;&lt;/b&gt;" style="html=1;whiteSpace=wrap;" parent="1" vertex="1">
          <mxGeometry x="270" y="317" width="210" height="100" as="geometry" />
        </mxCell>
        <mxCell id="DrQeyzu7oYbo8D8z5N6E-15" value="&lt;b style=&quot;border-color: var(--border-color);&quot;&gt;&lt;font style=&quot;border-color: var(--border-color); font-size: 16px;&quot;&gt;:Shiftregister_1&lt;/font&gt;&lt;/b&gt;" style="whiteSpace=wrap;align=center;html=1;" parent="1" vertex="1">
          <mxGeometry x="130" y="530" width="170" height="130" as="geometry" />
        </mxCell>
        <mxCell id="DrQeyzu7oYbo8D8z5N6E-20" value="" style="html=1;shape=mxgraph.sysml.port;html=1;resizable=0;sysMLPortType=flowE;labelPosition=left;verticalLabelPosition=middle;align=right;verticalAlign=middle;rotation=-180;" parent="DrQeyzu7oYbo8D8z5N6E-15" vertex="1">
          <mxGeometry x="1" width="20" height="20" relative="1" as="geometry">
            <mxPoint x="-10" y="10" as="offset" />
          </mxGeometry>
        </mxCell>
        <mxCell id="DrQeyzu7oYbo8D8z5N6E-50" value="" style="html=1;shape=mxgraph.sysml.port;html=1;resizable=0;sysMLPortType=flowE;labelPosition=left;verticalLabelPosition=middle;align=right;verticalAlign=middle;rotation=90;" parent="DrQeyzu7oYbo8D8z5N6E-15" vertex="1">
          <mxGeometry x="75" y="119.99857142857144" width="20" height="20" as="geometry" />
        </mxCell>
        <mxCell id="DrQeyzu7oYbo8D8z5N6E-24" value="&lt;b style=&quot;border-color: var(--border-color);&quot;&gt;&lt;font style=&quot;border-color: var(--border-color); font-size: 16px;&quot;&gt;:MCU&lt;/font&gt;&lt;/b&gt;" style="whiteSpace=wrap;align=center;html=1;" parent="1" vertex="1">
          <mxGeometry x="521" y="530" width="220" height="170" as="geometry" />
        </mxCell>
        <mxCell id="DrQeyzu7oYbo8D8z5N6E-25" value="" style="html=1;shape=mxgraph.sysml.port;html=1;resizable=0;sysMLPortType=flowE;labelPosition=left;verticalLabelPosition=middle;align=right;verticalAlign=middle;rotation=-180;" parent="DrQeyzu7oYbo8D8z5N6E-24" vertex="1">
          <mxGeometry x="1" width="20" height="20" relative="1" as="geometry">
            <mxPoint x="-230" y="10" as="offset" />
          </mxGeometry>
        </mxCell>
        <mxCell id="DrQeyzu7oYbo8D8z5N6E-28" value="" style="html=1;shape=mxgraph.sysml.port;html=1;resizable=0;sysMLPortType=flowE;labelPosition=left;verticalLabelPosition=middle;align=right;verticalAlign=middle;rotation=-180;" parent="DrQeyzu7oYbo8D8z5N6E-24" vertex="1">
          <mxGeometry x="-10" y="70" width="20" height="20" as="geometry" />
        </mxCell>
        <mxCell id="DrQeyzu7oYbo8D8z5N6E-89" value="" style="html=1;shape=mxgraph.sysml.port;html=1;resizable=0;sysMLPortType=flowE;labelPosition=left;verticalLabelPosition=middle;align=right;verticalAlign=middle;rotation=-90;" parent="DrQeyzu7oYbo8D8z5N6E-24" vertex="1">
          <mxGeometry x="160" y="-10" width="20" height="20" as="geometry" />
        </mxCell>
        <mxCell id="DrQeyzu7oYbo8D8z5N6E-90" value="" style="html=1;shape=mxgraph.sysml.port;html=1;resizable=0;sysMLPortType=flowE;labelPosition=left;verticalLabelPosition=middle;align=right;verticalAlign=middle;rotation=-90;" parent="DrQeyzu7oYbo8D8z5N6E-24" vertex="1">
          <mxGeometry x="130" y="-10" width="20" height="20" as="geometry" />
        </mxCell>
        <mxCell id="DrQeyzu7oYbo8D8z5N6E-34" style="edgeStyle=orthogonalEdgeStyle;rounded=0;orthogonalLoop=1;jettySize=auto;html=1;exitX=1;exitY=0.5;exitDx=0;exitDy=0;exitPerimeter=0;entryX=0;entryY=0.5;entryDx=0;entryDy=0;entryPerimeter=0;" parent="1" source="DrQeyzu7oYbo8D8z5N6E-26" target="DrQeyzu7oYbo8D8z5N6E-30" edge="1">
          <mxGeometry relative="1" as="geometry" />
        </mxCell>
        <mxCell id="DrQeyzu7oYbo8D8z5N6E-39" value="SREG_SPI_CS" style="edgeLabel;html=1;align=center;verticalAlign=middle;resizable=0;points=[];" parent="DrQeyzu7oYbo8D8z5N6E-34" vertex="1" connectable="0">
          <mxGeometry x="-0.1137" y="1" relative="1" as="geometry">
            <mxPoint y="-1" as="offset" />
          </mxGeometry>
        </mxCell>
        <mxCell id="DrQeyzu7oYbo8D8z5N6E-26" value="" style="html=1;shape=mxgraph.sysml.port;html=1;resizable=0;sysMLPortType=flowE;labelPosition=left;verticalLabelPosition=middle;align=right;verticalAlign=middle;rotation=-180;" parent="1" vertex="1">
          <mxGeometry x="511" y="570" width="20" height="20" as="geometry" />
        </mxCell>
        <mxCell id="DrQeyzu7oYbo8D8z5N6E-30" value="" style="html=1;shape=mxgraph.sysml.port;html=1;resizable=0;sysMLPortType=flowE;labelPosition=left;verticalLabelPosition=middle;align=right;verticalAlign=middle;rotation=-180;" parent="1" vertex="1">
          <mxGeometry x="290" y="570" width="20" height="20" as="geometry" />
        </mxCell>
        <mxCell id="DrQeyzu7oYbo8D8z5N6E-31" value="" style="html=1;shape=mxgraph.sysml.port;html=1;resizable=0;sysMLPortType=flowE;labelPosition=left;verticalLabelPosition=middle;align=right;verticalAlign=middle;rotation=-180;" parent="1" vertex="1">
          <mxGeometry x="290" y="600" width="20" height="20" as="geometry" />
        </mxCell>
        <mxCell id="DrQeyzu7oYbo8D8z5N6E-33" style="edgeStyle=orthogonalEdgeStyle;rounded=0;orthogonalLoop=1;jettySize=auto;html=1;exitX=1;exitY=0.5;exitDx=0;exitDy=0;exitPerimeter=0;entryX=0;entryY=0.5;entryDx=0;entryDy=0;entryPerimeter=0;" parent="1" source="DrQeyzu7oYbo8D8z5N6E-25" target="DrQeyzu7oYbo8D8z5N6E-20" edge="1">
          <mxGeometry relative="1" as="geometry" />
        </mxCell>
        <mxCell id="DrQeyzu7oYbo8D8z5N6E-38" value="SREG_SPI_MOSI" style="edgeLabel;html=1;align=center;verticalAlign=middle;resizable=0;points=[];" parent="DrQeyzu7oYbo8D8z5N6E-33" vertex="1" connectable="0">
          <mxGeometry x="-0.1787" y="1" relative="1" as="geometry">
            <mxPoint x="-5" y="-1" as="offset" />
          </mxGeometry>
        </mxCell>
        <mxCell id="DrQeyzu7oYbo8D8z5N6E-35" style="edgeStyle=orthogonalEdgeStyle;rounded=0;orthogonalLoop=1;jettySize=auto;html=1;exitX=1;exitY=0.5;exitDx=0;exitDy=0;exitPerimeter=0;entryX=0;entryY=0.5;entryDx=0;entryDy=0;entryPerimeter=0;" parent="1" source="DrQeyzu7oYbo8D8z5N6E-28" target="DrQeyzu7oYbo8D8z5N6E-31" edge="1">
          <mxGeometry relative="1" as="geometry" />
        </mxCell>
        <mxCell id="DrQeyzu7oYbo8D8z5N6E-40" value="SREG_SPI_SCL" style="edgeLabel;html=1;align=center;verticalAlign=middle;resizable=0;points=[];" parent="DrQeyzu7oYbo8D8z5N6E-35" vertex="1" connectable="0">
          <mxGeometry x="-0.3879" y="-1" relative="1" as="geometry">
            <mxPoint x="-22" y="1" as="offset" />
          </mxGeometry>
        </mxCell>
        <mxCell id="DrQeyzu7oYbo8D8z5N6E-44" value="&lt;b style=&quot;border-color: var(--border-color);&quot;&gt;&lt;font style=&quot;border-color: var(--border-color); font-size: 16px;&quot;&gt;:Shiftregister_2&lt;/font&gt;&lt;/b&gt;" style="whiteSpace=wrap;align=center;html=1;" parent="1" vertex="1">
          <mxGeometry x="130" y="721" width="170" height="130" as="geometry" />
        </mxCell>
        <mxCell id="DrQeyzu7oYbo8D8z5N6E-45" value="" style="html=1;shape=mxgraph.sysml.port;html=1;resizable=0;sysMLPortType=flowE;labelPosition=left;verticalLabelPosition=middle;align=right;verticalAlign=middle;rotation=-180;" parent="DrQeyzu7oYbo8D8z5N6E-44" vertex="1">
          <mxGeometry x="1" width="20" height="20" relative="1" as="geometry">
            <mxPoint x="-10" y="10" as="offset" />
          </mxGeometry>
        </mxCell>
        <mxCell id="DrQeyzu7oYbo8D8z5N6E-47" value="" style="html=1;shape=mxgraph.sysml.port;html=1;resizable=0;sysMLPortType=flowE;labelPosition=left;verticalLabelPosition=middle;align=right;verticalAlign=middle;rotation=90;" parent="DrQeyzu7oYbo8D8z5N6E-44" vertex="1">
          <mxGeometry x="75" y="-10" width="20" height="20" as="geometry" />
        </mxCell>
        <mxCell id="DrQeyzu7oYbo8D8z5N6E-49" style="edgeStyle=orthogonalEdgeStyle;rounded=0;orthogonalLoop=1;jettySize=auto;html=1;exitX=0;exitY=0.5;exitDx=0;exitDy=0;exitPerimeter=0;entryX=0;entryY=0.5;entryDx=0;entryDy=0;entryPerimeter=0;" parent="1" source="DrQeyzu7oYbo8D8z5N6E-46" target="DrQeyzu7oYbo8D8z5N6E-31" edge="1">
          <mxGeometry relative="1" as="geometry">
            <mxPoint x="370.0000000000001" y="580" as="targetPoint" />
            <Array as="points">
              <mxPoint x="370" y="771" />
              <mxPoint x="370" y="610" />
            </Array>
          </mxGeometry>
        </mxCell>
        <mxCell id="DrQeyzu7oYbo8D8z5N6E-46" value="" style="html=1;shape=mxgraph.sysml.port;html=1;resizable=0;sysMLPortType=flowE;labelPosition=left;verticalLabelPosition=middle;align=right;verticalAlign=middle;rotation=-180;" parent="1" vertex="1">
          <mxGeometry x="290" y="761" width="20" height="20" as="geometry" />
        </mxCell>
        <mxCell id="DrQeyzu7oYbo8D8z5N6E-48" style="edgeStyle=orthogonalEdgeStyle;rounded=0;orthogonalLoop=1;jettySize=auto;html=1;exitX=0;exitY=0.5;exitDx=0;exitDy=0;exitPerimeter=0;entryX=0;entryY=0.5;entryDx=0;entryDy=0;entryPerimeter=0;jumpStyle=arc;" parent="1" source="DrQeyzu7oYbo8D8z5N6E-45" target="DrQeyzu7oYbo8D8z5N6E-30" edge="1">
          <mxGeometry relative="1" as="geometry">
            <mxPoint x="340" y="550" as="targetPoint" />
            <Array as="points">
              <mxPoint x="350" y="741" />
              <mxPoint x="350" y="580" />
            </Array>
          </mxGeometry>
        </mxCell>
        <mxCell id="DrQeyzu7oYbo8D8z5N6E-51" style="edgeStyle=orthogonalEdgeStyle;rounded=0;orthogonalLoop=1;jettySize=auto;html=1;exitX=1;exitY=0.5;exitDx=0;exitDy=0;exitPerimeter=0;entryX=0;entryY=0.5;entryDx=0;entryDy=0;entryPerimeter=0;" parent="1" source="DrQeyzu7oYbo8D8z5N6E-50" target="DrQeyzu7oYbo8D8z5N6E-47" edge="1">
          <mxGeometry relative="1" as="geometry" />
        </mxCell>
        <mxCell id="DrQeyzu7oYbo8D8z5N6E-54" value="SREG_SPI_MOSI_MSB" style="edgeLabel;html=1;align=center;verticalAlign=middle;resizable=0;points=[];" parent="DrQeyzu7oYbo8D8z5N6E-51" vertex="1" connectable="0">
          <mxGeometry x="-0.2746" y="-1" relative="1" as="geometry">
            <mxPoint as="offset" />
          </mxGeometry>
        </mxCell>
        <mxCell id="DrQeyzu7oYbo8D8z5N6E-62" value="&lt;span style=&quot;white-space: pre;&quot;&gt; &lt;span style=&quot;white-space: pre;&quot;&gt; &lt;/span&gt; &lt;/span&gt;&amp;nbsp; &amp;nbsp; &amp;nbsp; &amp;nbsp; &amp;nbsp; &amp;nbsp; &amp;nbsp; &amp;nbsp; &amp;nbsp; D8-D15" style="html=1;shape=mxgraph.sysml.port;sysMLPortType=flowN;direction=south;" parent="1" vertex="1">
          <mxGeometry x="260" y="337" width="20" height="20" as="geometry" />
        </mxCell>
        <mxCell id="DrQeyzu7oYbo8D8z5N6E-64" value="  &lt;span style=&quot;border-color: var(--border-color);&quot;&gt;&lt;/span&gt;&amp;nbsp;&lt;span style=&quot;white-space: pre;&quot;&gt; &lt;/span&gt;&lt;span style=&quot;white-space: pre;&quot;&gt; &lt;/span&gt;&amp;nbsp; &amp;nbsp; &amp;nbsp; &amp;nbsp; &amp;nbsp; &amp;nbsp; &amp;nbsp; &amp;nbsp; D0-D7" style="html=1;shape=mxgraph.sysml.port;sysMLPortType=flowN;direction=south;" parent="1" vertex="1">
          <mxGeometry x="260" y="377" width="20" height="20" as="geometry" />
        </mxCell>
        <mxCell id="DrQeyzu7oYbo8D8z5N6E-67" style="edgeStyle=orthogonalEdgeStyle;rounded=0;orthogonalLoop=1;jettySize=auto;html=1;exitX=0.5;exitY=0;exitDx=0;exitDy=0;exitPerimeter=0;entryX=0.5;entryY=1;entryDx=0;entryDy=0;entryPerimeter=0;" parent="1" source="DrQeyzu7oYbo8D8z5N6E-65" target="DrQeyzu7oYbo8D8z5N6E-64" edge="1">
          <mxGeometry relative="1" as="geometry" />
        </mxCell>
        <mxCell id="DrQeyzu7oYbo8D8z5N6E-114" value="LCD_D0, LCD_D7" style="edgeLabel;html=1;align=center;verticalAlign=middle;resizable=0;points=[];" parent="DrQeyzu7oYbo8D8z5N6E-67" vertex="1" connectable="0">
          <mxGeometry x="-0.311" relative="1" as="geometry">
            <mxPoint x="70" y="-71" as="offset" />
          </mxGeometry>
        </mxCell>
        <mxCell id="DrQeyzu7oYbo8D8z5N6E-65" value="  &lt;span style=&quot;border-color: var(--border-color);&quot;&gt;&lt;/span&gt;&amp;nbsp;&lt;span style=&quot;white-space: pre;&quot;&gt; &lt;/span&gt;&lt;span style=&quot;white-space: pre;&quot;&gt; &lt;/span&gt;&amp;nbsp; &amp;nbsp; &amp;nbsp; &amp;nbsp; &amp;nbsp; &amp;nbsp; &amp;nbsp; &amp;nbsp;D0-D7" style="html=1;shape=mxgraph.sysml.port;sysMLPortType=flowN;direction=north;" parent="1" vertex="1">
          <mxGeometry x="120" y="550" width="20" height="20" as="geometry" />
        </mxCell>
        <mxCell id="DrQeyzu7oYbo8D8z5N6E-68" style="edgeStyle=orthogonalEdgeStyle;rounded=0;orthogonalLoop=1;jettySize=auto;html=1;exitX=0.5;exitY=0;exitDx=0;exitDy=0;exitPerimeter=0;entryX=0.5;entryY=1;entryDx=0;entryDy=0;entryPerimeter=0;" parent="1" source="DrQeyzu7oYbo8D8z5N6E-66" target="DrQeyzu7oYbo8D8z5N6E-62" edge="1">
          <mxGeometry relative="1" as="geometry">
            <Array as="points">
              <mxPoint x="70" y="751" />
              <mxPoint x="70" y="347" />
            </Array>
          </mxGeometry>
        </mxCell>
        <mxCell id="DrQeyzu7oYbo8D8z5N6E-115" value="LCD_D8, LCD_D15" style="edgeLabel;html=1;align=center;verticalAlign=middle;resizable=0;points=[];" parent="DrQeyzu7oYbo8D8z5N6E-68" vertex="1" connectable="0">
          <mxGeometry x="0.6857" y="-1" relative="1" as="geometry">
            <mxPoint x="8" y="-1" as="offset" />
          </mxGeometry>
        </mxCell>
        <mxCell id="DrQeyzu7oYbo8D8z5N6E-66" value="&amp;nbsp; &lt;span style=&quot;border-color: var(--border-color);&quot;&gt;&lt;span style=&quot;white-space: pre;&quot;&gt;&amp;nbsp;&amp;nbsp;&amp;nbsp;&amp;nbsp;&lt;/span&gt;&lt;/span&gt;&amp;nbsp; &amp;nbsp; &lt;span style=&quot;white-space: pre;&quot;&gt; &lt;/span&gt;&amp;nbsp; &amp;nbsp; &amp;nbsp; &amp;nbsp; &amp;nbsp;D8-D15" style="html=1;shape=mxgraph.sysml.port;sysMLPortType=flowN;direction=north;" parent="1" vertex="1">
          <mxGeometry x="120" y="741" width="20" height="20" as="geometry" />
        </mxCell>
        <mxCell id="DrQeyzu7oYbo8D8z5N6E-69" value="" style="html=1;shape=mxgraph.sysml.port;html=1;resizable=0;sysMLPortType=flowE;labelPosition=left;verticalLabelPosition=middle;align=right;verticalAlign=middle;rotation=90;" parent="1" vertex="1">
          <mxGeometry x="543" y="690" width="20" height="20" as="geometry" />
        </mxCell>
        <mxCell id="DrQeyzu7oYbo8D8z5N6E-70" value="" style="html=1;shape=mxgraph.sysml.port;html=1;resizable=0;sysMLPortType=flowE;labelPosition=left;verticalLabelPosition=middle;align=right;verticalAlign=middle;rotation=90;" parent="1" vertex="1">
          <mxGeometry x="653" y="690" width="20" height="20" as="geometry" />
        </mxCell>
        <mxCell id="DrQeyzu7oYbo8D8z5N6E-71" style="rounded=0;orthogonalLoop=1;jettySize=auto;html=1;exitX=1;exitY=0.5;exitDx=0;exitDy=0;exitPerimeter=0;entryX=0;entryY=0.5;entryDx=0;entryDy=0;entryPerimeter=0;" parent="1" source="DrQeyzu7oYbo8D8z5N6E-73" target="DrQeyzu7oYbo8D8z5N6E-74" edge="1">
          <mxGeometry relative="1" as="geometry" />
        </mxCell>
        <mxCell id="DrQeyzu7oYbo8D8z5N6E-72" value="T_SPI_CS" style="edgeLabel;html=1;align=center;verticalAlign=middle;resizable=0;points=[];" parent="DrQeyzu7oYbo8D8z5N6E-71" vertex="1" connectable="0">
          <mxGeometry x="-0.1137" y="1" relative="1" as="geometry">
            <mxPoint x="-1" y="26" as="offset" />
          </mxGeometry>
        </mxCell>
        <mxCell id="DrQeyzu7oYbo8D8z5N6E-73" value="" style="html=1;shape=mxgraph.sysml.port;html=1;resizable=0;sysMLPortType=flowE;labelPosition=left;verticalLabelPosition=middle;align=right;verticalAlign=middle;rotation=90;" parent="1" vertex="1">
          <mxGeometry x="591" y="690" width="20" height="20" as="geometry" />
        </mxCell>
        <mxCell id="DrQeyzu7oYbo8D8z5N6E-74" value="" style="html=1;shape=mxgraph.sysml.port;html=1;resizable=0;sysMLPortType=flowE;labelPosition=left;verticalLabelPosition=middle;align=right;verticalAlign=middle;rotation=90;" parent="1" vertex="1">
          <mxGeometry x="591" y="831" width="20" height="20" as="geometry" />
        </mxCell>
        <mxCell id="DrQeyzu7oYbo8D8z5N6E-75" value="" style="html=1;shape=mxgraph.sysml.port;html=1;resizable=0;sysMLPortType=flowE;labelPosition=left;verticalLabelPosition=middle;align=right;verticalAlign=middle;rotation=90;" parent="1" vertex="1">
          <mxGeometry x="653" y="831" width="20" height="20" as="geometry" />
        </mxCell>
        <mxCell id="DrQeyzu7oYbo8D8z5N6E-76" style="edgeStyle=orthogonalEdgeStyle;rounded=0;orthogonalLoop=1;jettySize=auto;html=1;exitX=1;exitY=0.5;exitDx=0;exitDy=0;exitPerimeter=0;entryX=0;entryY=0.5;entryDx=0;entryDy=0;entryPerimeter=0;" parent="1" source="DrQeyzu7oYbo8D8z5N6E-69" target="DrQeyzu7oYbo8D8z5N6E-80" edge="1">
          <mxGeometry relative="1" as="geometry">
            <mxPoint x="422" y="741" as="targetPoint" />
          </mxGeometry>
        </mxCell>
        <mxCell id="DrQeyzu7oYbo8D8z5N6E-77" value="T_SPI_MOSI" style="edgeLabel;html=1;align=center;verticalAlign=middle;resizable=0;points=[];" parent="DrQeyzu7oYbo8D8z5N6E-76" vertex="1" connectable="0">
          <mxGeometry x="-0.1787" y="1" relative="1" as="geometry">
            <mxPoint x="-1" y="1" as="offset" />
          </mxGeometry>
        </mxCell>
        <mxCell id="DrQeyzu7oYbo8D8z5N6E-78" style="edgeStyle=orthogonalEdgeStyle;rounded=0;orthogonalLoop=1;jettySize=auto;html=1;exitX=1;exitY=0.5;exitDx=0;exitDy=0;exitPerimeter=0;entryX=0;entryY=0.5;entryDx=0;entryDy=0;entryPerimeter=0;" parent="1" source="DrQeyzu7oYbo8D8z5N6E-70" target="DrQeyzu7oYbo8D8z5N6E-75" edge="1">
          <mxGeometry relative="1" as="geometry" />
        </mxCell>
        <mxCell id="DrQeyzu7oYbo8D8z5N6E-79" value="T_SPI_SCL" style="edgeLabel;html=1;align=center;verticalAlign=middle;resizable=0;points=[];" parent="DrQeyzu7oYbo8D8z5N6E-78" vertex="1" connectable="0">
          <mxGeometry x="-0.3879" y="-1" relative="1" as="geometry">
            <mxPoint x="1" y="43" as="offset" />
          </mxGeometry>
        </mxCell>
        <mxCell id="DrQeyzu7oYbo8D8z5N6E-80" value="" style="html=1;shape=mxgraph.sysml.port;html=1;resizable=0;sysMLPortType=flowE;labelPosition=left;verticalLabelPosition=middle;align=right;verticalAlign=middle;rotation=90;" parent="1" vertex="1">
          <mxGeometry x="543" y="831" width="20" height="20" as="geometry" />
        </mxCell>
        <mxCell id="DrQeyzu7oYbo8D8z5N6E-81" value="" style="html=1;shape=mxgraph.sysml.port;html=1;resizable=0;sysMLPortType=flowE;labelPosition=left;verticalLabelPosition=middle;align=right;verticalAlign=middle;rotation=0;" parent="1" vertex="1">
          <mxGeometry x="511" y="650" width="20" height="20" as="geometry" />
        </mxCell>
        <mxCell id="DrQeyzu7oYbo8D8z5N6E-83" style="edgeStyle=orthogonalEdgeStyle;rounded=0;orthogonalLoop=1;jettySize=auto;html=1;exitX=1;exitY=0.5;exitDx=0;exitDy=0;exitPerimeter=0;entryX=0;entryY=0.5;entryDx=0;entryDy=0;entryPerimeter=0;" parent="1" source="DrQeyzu7oYbo8D8z5N6E-82" target="DrQeyzu7oYbo8D8z5N6E-81" edge="1">
          <mxGeometry relative="1" as="geometry">
            <Array as="points">
              <mxPoint x="460" y="870" />
              <mxPoint x="460" y="660" />
            </Array>
          </mxGeometry>
        </mxCell>
        <mxCell id="DrQeyzu7oYbo8D8z5N6E-84" value="T_ISR" style="edgeLabel;html=1;align=center;verticalAlign=middle;resizable=0;points=[];" parent="DrQeyzu7oYbo8D8z5N6E-83" vertex="1" connectable="0">
          <mxGeometry x="0.0858" y="1" relative="1" as="geometry">
            <mxPoint y="5" as="offset" />
          </mxGeometry>
        </mxCell>
        <mxCell id="DrQeyzu7oYbo8D8z5N6E-82" value="" style="html=1;shape=mxgraph.sysml.port;html=1;resizable=0;sysMLPortType=flowE;labelPosition=left;verticalLabelPosition=middle;align=right;verticalAlign=middle;rotation=-180;" parent="1" vertex="1">
          <mxGeometry x="501" y="860" width="20" height="20" as="geometry" />
        </mxCell>
        <mxCell id="DrQeyzu7oYbo8D8z5N6E-85" value="" style="html=1;shape=mxgraph.sysml.port;html=1;resizable=0;sysMLPortType=flowE;labelPosition=left;verticalLabelPosition=middle;align=right;verticalAlign=middle;rotation=-90;" parent="1" vertex="1">
          <mxGeometry x="700" y="831" width="20" height="20" as="geometry" />
        </mxCell>
        <mxCell id="DrQeyzu7oYbo8D8z5N6E-87" style="edgeStyle=orthogonalEdgeStyle;rounded=0;orthogonalLoop=1;jettySize=auto;html=1;exitX=0;exitY=0.5;exitDx=0;exitDy=0;exitPerimeter=0;entryX=1;entryY=0.5;entryDx=0;entryDy=0;entryPerimeter=0;" parent="1" source="DrQeyzu7oYbo8D8z5N6E-86" target="DrQeyzu7oYbo8D8z5N6E-85" edge="1">
          <mxGeometry relative="1" as="geometry" />
        </mxCell>
        <mxCell id="DrQeyzu7oYbo8D8z5N6E-88" value="T_SPI_MISO" style="edgeLabel;html=1;align=center;verticalAlign=middle;resizable=0;points=[];" parent="DrQeyzu7oYbo8D8z5N6E-87" vertex="1" connectable="0">
          <mxGeometry x="0.1919" relative="1" as="geometry">
            <mxPoint y="-21" as="offset" />
          </mxGeometry>
        </mxCell>
        <mxCell id="DrQeyzu7oYbo8D8z5N6E-86" value="" style="html=1;shape=mxgraph.sysml.port;html=1;resizable=0;sysMLPortType=flowE;labelPosition=left;verticalLabelPosition=middle;align=right;verticalAlign=middle;rotation=-90;" parent="1" vertex="1">
          <mxGeometry x="700" y="690" width="20" height="20" as="geometry" />
        </mxCell>
        <mxCell id="DrQeyzu7oYbo8D8z5N6E-104" style="edgeStyle=orthogonalEdgeStyle;rounded=0;orthogonalLoop=1;jettySize=auto;html=1;exitX=1;exitY=0.5;exitDx=0;exitDy=0;exitPerimeter=0;entryX=0;entryY=0.5;entryDx=0;entryDy=0;entryPerimeter=0;" parent="1" source="DrQeyzu7oYbo8D8z5N6E-91" target="DrQeyzu7oYbo8D8z5N6E-99" edge="1">
          <mxGeometry relative="1" as="geometry">
            <Array as="points">
              <mxPoint x="632" y="250" />
              <mxPoint x="399" y="250" />
            </Array>
          </mxGeometry>
        </mxCell>
        <mxCell id="DrQeyzu7oYbo8D8z5N6E-109" value="LCD_WR" style="edgeLabel;html=1;align=center;verticalAlign=middle;resizable=0;points=[];" parent="DrQeyzu7oYbo8D8z5N6E-104" vertex="1" connectable="0">
          <mxGeometry x="0.4046" y="-2" relative="1" as="geometry">
            <mxPoint x="30" as="offset" />
          </mxGeometry>
        </mxCell>
        <mxCell id="DrQeyzu7oYbo8D8z5N6E-91" value="" style="html=1;shape=mxgraph.sysml.port;html=1;resizable=0;sysMLPortType=flowE;labelPosition=left;verticalLabelPosition=middle;align=right;verticalAlign=middle;rotation=-90;" parent="1" vertex="1">
          <mxGeometry x="622" y="520" width="20" height="20" as="geometry" />
        </mxCell>
        <mxCell id="DrQeyzu7oYbo8D8z5N6E-103" style="edgeStyle=orthogonalEdgeStyle;rounded=0;orthogonalLoop=1;jettySize=auto;html=1;exitX=1;exitY=0.5;exitDx=0;exitDy=0;exitPerimeter=0;entryX=0;entryY=0.5;entryDx=0;entryDy=0;entryPerimeter=0;" parent="1" source="DrQeyzu7oYbo8D8z5N6E-92" target="DrQeyzu7oYbo8D8z5N6E-98" edge="1">
          <mxGeometry relative="1" as="geometry">
            <Array as="points">
              <mxPoint x="602" y="270" />
              <mxPoint x="428" y="270" />
            </Array>
          </mxGeometry>
        </mxCell>
        <mxCell id="DrQeyzu7oYbo8D8z5N6E-108" value="LCD_CS" style="edgeLabel;html=1;align=center;verticalAlign=middle;resizable=0;points=[];" parent="DrQeyzu7oYbo8D8z5N6E-103" vertex="1" connectable="0">
          <mxGeometry x="0.483" relative="1" as="geometry">
            <mxPoint x="28" as="offset" />
          </mxGeometry>
        </mxCell>
        <mxCell id="DrQeyzu7oYbo8D8z5N6E-92" value="" style="html=1;shape=mxgraph.sysml.port;html=1;resizable=0;sysMLPortType=flowE;labelPosition=left;verticalLabelPosition=middle;align=right;verticalAlign=middle;rotation=-90;" parent="1" vertex="1">
          <mxGeometry x="592" y="520" width="20" height="20" as="geometry" />
        </mxCell>
        <mxCell id="DrQeyzu7oYbo8D8z5N6E-102" style="edgeStyle=orthogonalEdgeStyle;rounded=0;orthogonalLoop=1;jettySize=auto;html=1;exitX=1;exitY=0.5;exitDx=0;exitDy=0;exitPerimeter=0;entryX=0;entryY=0.5;entryDx=0;entryDy=0;entryPerimeter=0;" parent="1" source="DrQeyzu7oYbo8D8z5N6E-93" target="DrQeyzu7oYbo8D8z5N6E-97" edge="1">
          <mxGeometry relative="1" as="geometry">
            <Array as="points">
              <mxPoint x="571" y="290" />
              <mxPoint x="458" y="290" />
            </Array>
          </mxGeometry>
        </mxCell>
        <mxCell id="DrQeyzu7oYbo8D8z5N6E-107" value="LCD_RST" style="edgeLabel;html=1;align=center;verticalAlign=middle;resizable=0;points=[];" parent="DrQeyzu7oYbo8D8z5N6E-102" vertex="1" connectable="0">
          <mxGeometry x="0.6108" y="-1" relative="1" as="geometry">
            <mxPoint x="31" as="offset" />
          </mxGeometry>
        </mxCell>
        <mxCell id="DrQeyzu7oYbo8D8z5N6E-93" value="" style="html=1;shape=mxgraph.sysml.port;html=1;resizable=0;sysMLPortType=flowE;labelPosition=left;verticalLabelPosition=middle;align=right;verticalAlign=middle;rotation=-90;" parent="1" vertex="1">
          <mxGeometry x="561" y="520" width="20" height="20" as="geometry" />
        </mxCell>
        <mxCell id="DrQeyzu7oYbo8D8z5N6E-97" value="" style="html=1;shape=mxgraph.sysml.port;html=1;resizable=0;sysMLPortType=flowE;labelPosition=left;verticalLabelPosition=middle;align=right;verticalAlign=middle;rotation=90;" parent="1" vertex="1">
          <mxGeometry x="448" y="307" width="20" height="20" as="geometry" />
        </mxCell>
        <mxCell id="DrQeyzu7oYbo8D8z5N6E-98" value="" style="html=1;shape=mxgraph.sysml.port;html=1;resizable=0;sysMLPortType=flowE;labelPosition=left;verticalLabelPosition=middle;align=right;verticalAlign=middle;rotation=90;" parent="1" vertex="1">
          <mxGeometry x="418" y="307" width="20" height="20" as="geometry" />
        </mxCell>
        <mxCell id="DrQeyzu7oYbo8D8z5N6E-99" value="" style="html=1;shape=mxgraph.sysml.port;html=1;resizable=0;sysMLPortType=flowE;labelPosition=left;verticalLabelPosition=middle;align=right;verticalAlign=middle;rotation=90;" parent="1" vertex="1">
          <mxGeometry x="389" y="307" width="20" height="20" as="geometry" />
        </mxCell>
        <mxCell id="DrQeyzu7oYbo8D8z5N6E-100" value="" style="html=1;shape=mxgraph.sysml.port;html=1;resizable=0;sysMLPortType=flowE;labelPosition=left;verticalLabelPosition=middle;align=right;verticalAlign=middle;rotation=90;" parent="1" vertex="1">
          <mxGeometry x="359" y="307" width="20" height="20" as="geometry" />
        </mxCell>
        <mxCell id="DrQeyzu7oYbo8D8z5N6E-101" value="" style="html=1;shape=mxgraph.sysml.port;html=1;resizable=0;sysMLPortType=flowE;labelPosition=left;verticalLabelPosition=middle;align=right;verticalAlign=middle;rotation=90;" parent="1" vertex="1">
          <mxGeometry x="328" y="307" width="20" height="20" as="geometry" />
        </mxCell>
        <mxCell id="DrQeyzu7oYbo8D8z5N6E-105" style="edgeStyle=orthogonalEdgeStyle;rounded=0;orthogonalLoop=1;jettySize=auto;html=1;exitX=1;exitY=0.5;exitDx=0;exitDy=0;exitPerimeter=0;entryX=0;entryY=0.5;entryDx=0;entryDy=0;entryPerimeter=0;" parent="1" source="DrQeyzu7oYbo8D8z5N6E-90" target="DrQeyzu7oYbo8D8z5N6E-100" edge="1">
          <mxGeometry relative="1" as="geometry">
            <Array as="points">
              <mxPoint x="661" y="230" />
              <mxPoint x="369" y="230" />
            </Array>
          </mxGeometry>
        </mxCell>
        <mxCell id="DrQeyzu7oYbo8D8z5N6E-110" value="LCD_RS" style="edgeLabel;html=1;align=center;verticalAlign=middle;resizable=0;points=[];" parent="DrQeyzu7oYbo8D8z5N6E-105" vertex="1" connectable="0">
          <mxGeometry x="0.3679" y="-2" relative="1" as="geometry">
            <mxPoint x="36" as="offset" />
          </mxGeometry>
        </mxCell>
        <mxCell id="DrQeyzu7oYbo8D8z5N6E-106" style="edgeStyle=orthogonalEdgeStyle;rounded=0;orthogonalLoop=1;jettySize=auto;html=1;exitX=1;exitY=0.5;exitDx=0;exitDy=0;exitPerimeter=0;entryX=0;entryY=0.5;entryDx=0;entryDy=0;entryPerimeter=0;" parent="1" source="DrQeyzu7oYbo8D8z5N6E-89" target="DrQeyzu7oYbo8D8z5N6E-101" edge="1">
          <mxGeometry relative="1" as="geometry">
            <Array as="points">
              <mxPoint x="691" y="210" />
              <mxPoint x="338" y="210" />
            </Array>
          </mxGeometry>
        </mxCell>
        <mxCell id="DrQeyzu7oYbo8D8z5N6E-111" value="LCD_RD" style="edgeLabel;html=1;align=center;verticalAlign=middle;resizable=0;points=[];" parent="DrQeyzu7oYbo8D8z5N6E-106" vertex="1" connectable="0">
          <mxGeometry x="0.3119" relative="1" as="geometry">
            <mxPoint x="34" as="offset" />
          </mxGeometry>
        </mxCell>
        <mxCell id="xBclcCluWVGSd1LC9Pbv-3" style="edgeStyle=orthogonalEdgeStyle;rounded=0;orthogonalLoop=1;jettySize=auto;html=1;exitX=1;exitY=0.5;exitDx=0;exitDy=0;exitPerimeter=0;entryX=0;entryY=0.5;entryDx=0;entryDy=0;entryPerimeter=0;" edge="1" parent="1" source="xBclcCluWVGSd1LC9Pbv-1" target="xBclcCluWVGSd1LC9Pbv-2">
          <mxGeometry relative="1" as="geometry" />
        </mxCell>
        <mxCell id="xBclcCluWVGSd1LC9Pbv-4" value="Light" style="edgeLabel;html=1;align=center;verticalAlign=middle;resizable=0;points=[];" vertex="1" connectable="0" parent="xBclcCluWVGSd1LC9Pbv-3">
          <mxGeometry x="-0.164" y="1" relative="1" as="geometry">
            <mxPoint as="offset" />
          </mxGeometry>
        </mxCell>
        <mxCell id="xBclcCluWVGSd1LC9Pbv-1" value="" style="html=1;shape=mxgraph.sysml.port;html=1;resizable=0;sysMLPortType=flowE;labelPosition=left;verticalLabelPosition=middle;align=right;verticalAlign=middle;rotation=-90;" vertex="1" parent="1">
          <mxGeometry x="290" y="307" width="20" height="20" as="geometry" />
        </mxCell>
        <mxCell id="xBclcCluWVGSd1LC9Pbv-2" value="" style="html=1;shape=mxgraph.sysml.port;html=1;resizable=0;sysMLPortType=flowE;labelPosition=left;verticalLabelPosition=middle;align=right;verticalAlign=middle;rotation=-90;" vertex="1" parent="1">
          <mxGeometry x="290" y="170" width="20" height="20" as="geometry" />
        </mxCell>
        <mxCell id="xBclcCluWVGSd1LC9Pbv-7" style="edgeStyle=orthogonalEdgeStyle;rounded=0;orthogonalLoop=1;jettySize=auto;html=1;exitX=1;exitY=0.5;exitDx=0;exitDy=0;exitPerimeter=0;entryX=0;entryY=0.5;entryDx=0;entryDy=0;entryPerimeter=0;" edge="1" parent="1" source="xBclcCluWVGSd1LC9Pbv-5" target="xBclcCluWVGSd1LC9Pbv-6">
          <mxGeometry relative="1" as="geometry" />
        </mxCell>
        <mxCell id="xBclcCluWVGSd1LC9Pbv-8" value="Force" style="edgeLabel;html=1;align=center;verticalAlign=middle;resizable=0;points=[];" vertex="1" connectable="0" parent="xBclcCluWVGSd1LC9Pbv-7">
          <mxGeometry x="-0.3267" relative="1" as="geometry">
            <mxPoint as="offset" />
          </mxGeometry>
        </mxCell>
        <mxCell id="xBclcCluWVGSd1LC9Pbv-5" value="" style="html=1;shape=mxgraph.sysml.port;html=1;resizable=0;sysMLPortType=flowE;labelPosition=left;verticalLabelPosition=middle;align=right;verticalAlign=middle;rotation=-90;" vertex="1" parent="1">
          <mxGeometry x="448" y="970" width="20" height="20" as="geometry" />
        </mxCell>
        <mxCell id="xBclcCluWVGSd1LC9Pbv-6" value="" style="html=1;shape=mxgraph.sysml.port;html=1;resizable=0;sysMLPortType=flowE;labelPosition=left;verticalLabelPosition=middle;align=right;verticalAlign=middle;rotation=0;" vertex="1" parent="1">
          <mxGeometry x="501" y="900" width="20" height="20" as="geometry" />
        </mxCell>
      </root>
    </mxGraphModel>
  </diagram>
</mxfile>
